<svg id="Layer_1" data-name="Layer 1" xmlns="http://www.w3.org/2000/svg" viewBox="0 0 48 48">
  <defs>
    <style>
      .cls-1 {
        stroke-width: 0px;
      }
    </style>
  </defs>
  <path class="cls-1" d="M38,18c-.553,0-1,.448-1,1v5c0,6.065-4.935,11-11,11h-4c-6.065,0-11-4.935-11-11v-5c0-.552-.447-1-1-1s-1,.448-1,1v5c0,7.168,5.832,13,13,13v6h-6c-1.657,0-3,1.343-3,3,0,.552.448,1,1,1h20c.552,0,1-.448,1-1,0-1.657-1.343-3-3-3h-6v-6c7.168,0,13-5.832,13-13v-5c0-.552-.447-1-1-1Z" id="id_107" style="fill: rgb(255, 255, 255);"></path>
  <path class="cls-1" d="M21,24c0,.552-.448,1-1,1h-5.931c.493,3.945,3.852,7,7.931,7h4c4.079,0,7.438-3.055,7.931-7h-5.931c-.552,0-1-.448-1-1s.448-1,1-1h6v-3h-6c-.552,0-1-.448-1-1s.448-1,1-1h6v-3h-6c-.552,0-1-.448-1-1s.448-1,1-1h6v-3h-6c-.552,0-1-.448-1-1s.448-1,1-1h5.931c-.493-3.945-3.852-7-7.931-7h-4c-4.079,0-7.438,3.055-7.931,7h5.931c.552,0,1,.448,1,1s-.448,1-1,1h-6v3h6c.552,0,1,.448,1,1s-.448,1-1,1h-6v3h6c.552,0,1,.448,1,1s-.448,1-1,1h-6v3h6c.552,0,1,.448,1,1Z" id="id_108" style="fill: rgb(255, 255, 255);"></path>
</svg>