<svg xmlns="http://www.w3.org/2000/svg" viewBox="0 0 64 64"><title>1</title><g id="Layer_9" data-name="Layer 9"><path d="M36.81,5.87a13.48,13.48,0,0,1,7.84,7.93,2,2,0,0,0,3.75-1.38A17.48,17.48,0,0,0,38.24,2.13a2,2,0,0,0-1.43,3.74Z" id="id_101" style="fill: rgb(255, 255, 255);"></path><path d="M31.67,45.58h.66A11,11,0,0,0,43.28,34.64V18.14A11,11,0,0,0,32.33,7.19h-.66A11,11,0,0,0,20.72,18.14v16.5A11,11,0,0,0,31.67,45.58ZM24.72,18.14a7,7,0,0,1,6.95-6.95h.66a7,7,0,0,1,6.95,6.95v16.5a7,7,0,0,1-6.95,6.95h-.66a7,7,0,0,1-6.95-6.95Z" id="id_102" style="fill: rgb(255, 255, 255);"></path><path d="M48.17,27.17a2,2,0,0,0-2,2V35a14.18,14.18,0,1,1-28.35,0V29.17a2,2,0,1,0-4,0V35A18.2,18.2,0,0,0,30,53.07V60a2,2,0,0,0,4,0V53.07A18.2,18.2,0,0,0,50.17,35V29.17A2,2,0,0,0,48.17,27.17Z" id="id_103" style="fill: rgb(255, 255, 255);"></path></g></svg>